<?xml version="1.0" standalone="no"?>
<!DOCTYPE svg PUBLIC "-//W3C//DTD SVG 20010904//EN"
 "http://www.w3.org/TR/2001/REC-SVG-20010904/DTD/svg10.dtd">
<svg version="1.0" xmlns="http://www.w3.org/2000/svg"
 width="100.000000pt" height="59.000000pt" viewBox="0 0 100.000000 59.000000"
 preserveAspectRatio="xMidYMid meet">

<g transform="translate(0.000000,59.000000) scale(0.100000,-0.100000)"
fill="#000000" stroke="none">
<path d="M703 525 c-7 -20 2 -29 21 -22 9 4 13 13 10 22 -8 19 -23 19 -31 0z"/>
<path d="M42 497 c-20 -55 -15 -95 14 -122 15 -14 33 -25 40 -25 19 0 20 -146
2 -153 -7 -3 1 -5 17 -5 17 0 24 2 18 5 -19 7 -18 153 1 153 22 0 66 51 66 78
0 13 -5 42 -12 63 l-11 39 -62 0 c-60 0 -61 -1 -73 -33z m138 -77 c12 -7 11
-13 -10 -34 -30 -33 -75 -34 -107 -4 -27 26 -30 41 -5 34 9 -2 35 -1 57 4 22
4 42 8 45 9 3 0 12 -4 20 -9z"/>
<path d="M862 423 c3 -119 21 -145 26 -38 2 49 7 65 17 65 12 0 15 -16 15 -71
0 -52 3 -70 13 -67 16 6 21 105 8 141 -9 22 -15 26 -34 22 -22 -6 -23 -4 -19
24 3 24 0 31 -12 31 -15 0 -16 -13 -14 -107z"/>
<path d="M250 415 c0 -81 3 -106 13 -103 7 3 13 26 15 54 l4 49 24 -54 c17
-37 28 -51 35 -44 14 14 7 195 -8 200 -8 3 -13 -14 -15 -54 l-3 -58 -21 54
c-34 88 -44 78 -44 -44z"/>
<path d="M398 469 c-14 -8 -18 -24 -18 -74 0 -54 3 -66 20 -75 14 -8 26 -8 40
0 17 9 20 21 20 73 0 79 -18 102 -62 76z m32 -74 c0 -30 -4 -55 -9 -55 -14 0
-23 53 -15 84 11 44 24 29 24 -29z"/>
<path d="M497 473 c-4 -3 -7 -37 -7 -73 0 -77 14 -99 49 -80 16 8 21 8 21 -2
0 -8 3 -9 10 -2 14 14 9 159 -5 159 -5 0 -11 -31 -13 -68 -4 -91 -26 -87 -30
6 -3 62 -9 77 -25 60z"/>
<path d="M613 464 c-9 -24 2 -147 15 -152 9 -3 12 15 12 67 0 41 4 71 10 71 6
0 10 -4 10 -10 0 -5 7 -10 15 -10 18 0 20 26 3 37 -19 12 -60 10 -65 -3z"/>
<path d="M704 467 c-10 -27 1 -150 14 -155 9 -3 12 18 12 82 0 52 -4 86 -10
86 -6 0 -13 -6 -16 -13z"/>
<path d="M766 465 c-17 -18 -13 -37 20 -82 28 -37 29 -43 9 -43 -8 0 -15 7
-15 15 0 17 -16 20 -24 6 -20 -32 35 -63 64 -36 21 19 18 35 -18 83 -18 25
-21 37 -13 45 9 9 13 6 17 -11 8 -29 24 -28 24 2 0 35 -37 47 -64 21z"/>
<path d="M710 165 c0 -87 3 -105 15 -105 10 0 15 11 16 33 l0 32 16 -33 c15
-29 51 -48 39 -19 -26 62 -28 84 -12 115 13 25 14 32 3 32 -7 0 -21 -15 -30
-32 l-16 -33 0 58 c-1 44 -4 57 -16 57 -12 0 -15 -18 -15 -105z"/>
<path d="M350 160 c0 -81 3 -100 14 -100 11 0 16 15 18 52 l3 53 19 -52 c32
-85 46 -70 46 47 0 81 -3 100 -14 100 -11 0 -16 -15 -18 -52 l-3 -53 -19 53
c-32 84 -46 69 -46 -48z"/>
<path d="M490 201 c-14 -27 -13 -114 2 -129 18 -18 56 -14 68 7 13 25 13 97 0
122 -6 11 -21 19 -35 19 -14 0 -29 -8 -35 -19z m48 -66 c-4 -70 -28 -72 -28
-2 0 29 3 57 7 61 14 14 24 -13 21 -59z"/>
<path d="M600 201 c-5 -11 -10 -38 -10 -61 0 -23 5 -50 10 -61 12 -21 50 -25
68 -7 16 16 16 120 0 136 -18 18 -56 14 -68 -7z m50 -62 c0 -44 -3 -60 -12
-57 -13 5 -23 80 -14 104 13 34 26 10 26 -47z"/>
</g>
</svg>
